<?xml version="1.0" encoding="UTF-8" standalone="no"?>
<!-- Created with Inkscape (http://www.inkscape.org/) -->

<svg
   xmlns:osb="http://www.openswatchbook.org/uri/2009/osb"
   xmlns:dc="http://purl.org/dc/elements/1.1/"
   xmlns:cc="http://creativecommons.org/ns#"
   xmlns:rdf="http://www.w3.org/1999/02/22-rdf-syntax-ns#"
   xmlns:svg="http://www.w3.org/2000/svg"
   xmlns="http://www.w3.org/2000/svg"
   xmlns:xlink="http://www.w3.org/1999/xlink"
   xmlns:sodipodi="http://sodipodi.sourceforge.net/DTD/sodipodi-0.dtd"
   xmlns:inkscape="http://www.inkscape.org/namespaces/inkscape"
   width="744.09448819"
   height="1052.3622047"
   id="svg2"
   version="1.1"
   inkscape:version="0.48.1 "
   sodipodi:docname="New document 1">
  <defs
     id="defs4">
    <linearGradient
       inkscape:collect="always"
       id="linearGradient5483">
      <stop
         style="stop-color:#000000;stop-opacity:1;"
         offset="0"
         id="stop5485" />
      <stop
         style="stop-color:#000000;stop-opacity:0;"
         offset="1"
         id="stop5487" />
    </linearGradient>
    <linearGradient
       inkscape:collect="always"
       id="linearGradient5465"
       osb:paint="gradient">
      <stop
         style="stop-color:#000000;stop-opacity:1;"
         offset="0"
         id="stop5467" />
      <stop
         style="stop-color:#000000;stop-opacity:0;"
         offset="1"
         id="stop5469" />
    </linearGradient>
    <linearGradient
       id="linearGradient5429"
       osb:paint="solid">
      <stop
         style="stop-color:#241f1c;stop-opacity:1;"
         offset="0"
         id="stop5431" />
    </linearGradient>
    <linearGradient
       id="linearGradient5421"
       osb:paint="solid">
      <stop
         style="stop-color:#241f1c;stop-opacity:1;"
         offset="0"
         id="stop5423" />
    </linearGradient>
    <linearGradient
       inkscape:collect="always"
       id="linearGradient3205">
      <stop
         style="stop-color:#0000ff;stop-opacity:1;"
         offset="0"
         id="stop3207" />
      <stop
         style="stop-color:#0000ff;stop-opacity:0;"
         offset="1"
         id="stop3209" />
    </linearGradient>
    <linearGradient
       inkscape:collect="always"
       id="linearGradient3197">
      <stop
         style="stop-color:#abc837;stop-opacity:1;"
         offset="0"
         id="stop3199" />
      <stop
         style="stop-color:#abc837;stop-opacity:0;"
         offset="1"
         id="stop3201" />
    </linearGradient>
    <linearGradient
       inkscape:collect="always"
       id="linearGradient3189">
      <stop
         style="stop-color:#c8ab37;stop-opacity:1;"
         offset="0"
         id="stop3191" />
      <stop
         style="stop-color:#c8ab37;stop-opacity:0;"
         offset="1"
         id="stop3193" />
    </linearGradient>
    <linearGradient
       inkscape:collect="always"
       id="linearGradient3183">
      <stop
         style="stop-color:#c8ab37;stop-opacity:1;"
         offset="0"
         id="stop3185" />
      <stop
         style="stop-color:#c8ab37;stop-opacity:0;"
         offset="1"
         id="stop3187" />
    </linearGradient>
    <linearGradient
       inkscape:collect="always"
       id="linearGradient3167">
      <stop
         style="stop-color:#ccff00;stop-opacity:1;"
         offset="0"
         id="stop3169" />
      <stop
         style="stop-color:#ccff00;stop-opacity:0;"
         offset="1"
         id="stop3171" />
    </linearGradient>
    <inkscape:perspective
       sodipodi:type="inkscape:persp3d"
       inkscape:vp_x="0 : 526.18109 : 1"
       inkscape:vp_y="0 : 1000 : 0"
       inkscape:vp_z="744.09448 : 526.18109 : 1"
       inkscape:persp3d-origin="372.04724 : 350.78739 : 1"
       id="perspective2985" />
    <linearGradient
       inkscape:collect="always"
       xlink:href="#linearGradient3167"
       id="linearGradient3173"
       x1="401.28311"
       y1="131.60814"
       x2="422.74884"
       y2="145.49774"
       gradientUnits="userSpaceOnUse" />
    <linearGradient
       inkscape:collect="always"
       xlink:href="#linearGradient3183"
       id="linearGradient3181"
       x1="433.60797"
       y1="85.141121"
       x2="456.08386"
       y2="96.505333"
       gradientUnits="userSpaceOnUse" />
    <linearGradient
       inkscape:collect="always"
       xlink:href="#linearGradient3189"
       id="linearGradient3195"
       x1="435.1232"
       y1="93.222343"
       x2="424.26407"
       y2="80.090355"
       gradientUnits="userSpaceOnUse" />
    <linearGradient
       inkscape:collect="always"
       xlink:href="#linearGradient3197"
       id="linearGradient3203"
       x1="538.41132"
       y1="137.66905"
       x2="551.03821"
       y2="118.98123"
       gradientUnits="userSpaceOnUse"
       gradientTransform="translate(-4.7982246,11.111678)" />
    <linearGradient
       inkscape:collect="always"
       xlink:href="#linearGradient3205"
       id="linearGradient3211"
       x1="597.50525"
       y1="160.14494"
       x2="604.82886"
       y2="177.57008"
       gradientUnits="userSpaceOnUse" />
    <linearGradient
       inkscape:collect="always"
       xlink:href="#linearGradient5421"
       id="linearGradient5425"
       x1="443.46203"
       y1="68.473602"
       x2="467.443"
       y2="68.473602"
       gradientUnits="userSpaceOnUse" />
    <radialGradient
       inkscape:collect="always"
       xlink:href="#linearGradient5429"
       id="radialGradient5435"
       cx="445.47726"
       cy="36.40126"
       fx="445.47726"
       fy="36.40126"
       r="10.348988"
       gradientUnits="userSpaceOnUse"
       gradientTransform="matrix(-0.83224074,0.55441443,-0.43923973,-0.65935007,832.21047,-186.57659)" />
    <linearGradient
       inkscape:collect="always"
       xlink:href="#linearGradient5465"
       id="linearGradient5479"
       x1="443.46203"
       y1="42.840981"
       x2="472.99884"
       y2="42.840981"
       gradientUnits="userSpaceOnUse" />
    <linearGradient
       inkscape:collect="always"
       xlink:href="#linearGradient5483"
       id="linearGradient5489"
       x1="527.55212"
       y1="116.20331"
       x2="558.36182"
       y2="72.261673"
       gradientUnits="userSpaceOnUse" />
  </defs>
  <sodipodi:namedview
     id="base"
     pagecolor="#ffffff"
     bordercolor="#666666"
     borderopacity="1.0"
     inkscape:pageopacity="0.0"
     inkscape:pageshadow="2"
     inkscape:zoom="3.959798"
     inkscape:cx="553.40723"
     inkscape:cy="965.61378"
     inkscape:document-units="px"
     inkscape:current-layer="layer2"
     showgrid="false"
     showguides="true"
     inkscape:guide-bbox="true"
     inkscape:snap-global="false"
     inkscape:window-width="1600"
     inkscape:window-height="838"
     inkscape:window-x="-8"
     inkscape:window-y="-8"
     inkscape:window-maximized="1" />
  <metadata
     id="metadata7">
    <rdf:RDF>
      <cc:Work
         rdf:about="">
        <dc:format>image/svg+xml</dc:format>
        <dc:type
           rdf:resource="http://purl.org/dc/dcmitype/StillImage" />
        <dc:title></dc:title>
      </cc:Work>
    </rdf:RDF>
  </metadata>
  <g
     inkscape:label="background"
     inkscape:groupmode="layer"
     id="layer1"
     sodipodi:insensitive="true">
    <path
       style="fill:none;stroke:#000000;stroke-width:1px;stroke-linecap:butt;stroke-linejoin:miter;stroke-opacity:1"
       d="m 533.86562,65.948221 c 23.73858,-26.516504 36.61803,-21.213204 36.61803,-21.213204 14.43975,11.661619 43.88588,-70.074627 73.40152,-26.589252 4.27249,6.294655 42.12588,47.526262 42.26094,48.054997 12.01015,-1.759517 24.66456,50.507628 28.28427,51.265238 -0.74213,-6.67918 -76.31376,-2.50678 -100.51017,-4.04061 -24.12144,-1.52908 -197.21762,1.01673 -120.96577,-28.031733 44.15353,-16.820473 40.91118,-19.445436 40.91118,-19.445436 z"
       id="path5493"
       inkscape:connector-curvature="0"
       sodipodi:nodetypes="ccsccssc" />
  </g>
  <g
     inkscape:groupmode="layer"
     id="layer2"
     inkscape:label="Color1">
    <path
       style="fill:#000000;fill-opacity:0.56613758000000003;stroke:none;opacity:1"
       d="m 709.60207,114.58281 c -0.97228,-0.19354 -3.41558,-0.52078 -5.42957,-0.7272 -7.64342,-0.7834 -16.83381,-0.93477 -51.64405,-0.85056 -24.63763,0.0596 -36.16535,-0.005 -40.78491,-0.22772 -3.54185,-0.17094 -12.63322,-0.42793 -20.20305,-0.57109 -44.43522,-0.84035 -69.46046,-2.09892 -88.26208,-4.43885 -17.94139,-2.23288 -27.88095,-5.36468 -28.81308,-9.078563 -0.56436,-2.248599 2.30343,-5.012068 8.48376,-8.175134 3.58691,-1.835768 6.115,-2.900789 17.42513,-7.340771 16.03862,-6.29623 27.0689,-11.290447 31.31473,-14.178483 1.63292,-1.110719 2.77792,-2.157595 2.77792,-2.539855 0,-0.400573 7.33437,-7.777788 9.97526,-10.033529 9.01365,-7.699105 16.44672,-11.39195 22.93007,-11.39195 1.81985,0 2.29853,0.09577 3.35941,0.672155 1.73114,0.940526 3.95415,0.950493 5.96427,0.02674 3.8463,-1.767565 6.6957,-4.505508 16.77032,-16.114296 10.02823,-11.555328 14.1634,-15.634081 19.51672,-19.250419 3.729,-2.5190582 7.45112,-4.007479 10.89757,-4.3577728 1.90185,-0.1933017 5.3477,0.3565026 7.19371,1.1477962 3.72963,1.5987081 7.41282,4.9321726 11.77064,10.6530176 4.31473,5.66428 11.52054,13.951446 29.37981,33.788768 3.06364,3.402952 7.35296,8.188297 9.53183,10.634099 3.83905,4.309358 3.99718,4.451792 5.11194,4.604585 2.13821,0.293076 3.85364,1.589728 6.06654,4.58556 4.04483,5.475901 7.19988,12.396559 14.26774,31.29652 1.97004,5.26804 3.84937,10.18306 4.17629,10.92228 0.38024,0.85978 0.48567,1.33548 0.29262,1.3203 -0.16598,-0.0131 -1.09727,-0.18208 -2.06954,-0.37563 l 0,0 z"
       id="path5518"
       inkscape:connector-curvature="0" />
    <path
       style="fill:#b3b3b3;fill-opacity:0.56613758;stroke:none"
       id="path6228"
       d="m 502.21601,91.52011 c 0.40071,-0.571452 0.78537,-1.153538 1.208,-1.709318 0.31242,-0.429134 0.70337,-0.781938 1.15645,-1.054642 1.53865,-0.999436 3.01568,-1.867813 4.69756,-2.475212 0.50568,-0.18206 1.00608,-0.341886 1.54025,-0.418011 0.51404,-0.04189 1.03769,-0.101977 1.54795,-0.01089 0.57812,0.101085 1.15715,0.22348 1.71502,0.408168 0.53117,0.165989 1.071,0.312321 1.59108,0.511077 0.55893,0.226964 1.11631,0.462053 1.67146,0.700457 0.50135,0.233709 0.987,0.51067 1.50323,0.710248 0.39778,0.215319 0.78304,0.453008 1.18943,0.652158 0.45519,0.253344 0.9418,0.460907 1.44055,0.612632 0.5035,0.189882 0.98713,0.419101 1.51149,0.547151 0.5058,0.156337 1.0048,0.336676 1.51688,0.472024 0.48822,0.11461 0.99078,0.129846 1.48981,0.140719 0.5105,0.05648 0.99427,-0.05133 1.49238,-0.137382 0.51516,-0.04327 1.00437,-0.204492 1.51394,-0.285902 0.48851,-0.163297 0.9512,-0.387452 1.41412,-0.609782 0.46291,-0.16928 0.89023,-0.413726 1.36005,-0.566221 0.31681,-0.162949 0.65867,-0.252521 1.0048,-0.325729 0,0 -2.97346,2.275818 -2.97346,2.275818 l 0,0 c -0.33414,0.100511 -0.65758,0.22607 -0.98073,0.357522 -0.45074,0.190212 -0.89337,0.399966 -1.34181,0.595485 -0.46904,0.224942 -0.96201,0.424284 -1.47253,0.528206 -0.50426,0.103179 -1.00411,0.223629 -1.51651,0.282628 -0.51067,0.08579 -1.02028,0.113379 -1.53805,0.0764 -0.51917,-0.02458 -1.03992,-0.06691 -1.54074,-0.216087 -0.50594,-0.15425 -1.00897,-0.317891 -1.51558,-0.470107 -0.51753,-0.160736 -1.00882,-0.389337 -1.522,-0.563212 -0.506,-0.183688 -1.00292,-0.395605 -1.47391,-0.657372 -0.39335,-0.207938 -0.7788,-0.430759 -1.17705,-0.629231 -0.5003,-0.231187 -0.98855,-0.488186 -1.49068,-0.715931 -0.55581,-0.226222 -1.09957,-0.481775 -1.66626,-0.679656 -0.52389,-0.172493 -1.04812,-0.34353 -1.5775,-0.498572 -0.55256,-0.151115 -1.1105,-0.287719 -1.68147,-0.347561 -0.49598,-0.01709 -0.99482,0.01134 -1.48403,0.09743 -0.51287,0.111644 -1.00274,0.29424 -1.49569,0.472353 -1.36744,0.551532 -3.90907,1.89508 1.74268,-1.176165 -0.45299,0.253708 -0.88461,0.501575 -1.21738,0.916391 -0.40827,0.557701 -0.84552,1.093336 -1.20494,1.686397 0,0 -3.43681,1.503722 -3.43681,1.503722 z"
       inkscape:connector-curvature="0" />
    <path
       style="fill:#b3b3b3;fill-opacity:0.56613758;stroke:none"
       id="path6230"
       d="m 581.33911,54.270296 c -0.67655,-0.198642 -1.25456,-0.344774 -1.92065,-0.05586 -1.13937,0.868043 -0.16835,0.113456 2.7635,-1.547199 0.0675,-0.03822 -0.13048,0.08428 -0.19109,0.132654 -0.1891,0.150941 -0.33361,0.334977 -0.47886,0.525996 -0.28598,0.369159 -0.52228,0.769768 -0.81173,1.136392 -0.3071,0.341606 -0.54484,0.72363 -0.75849,1.128331 -0.21887,0.415598 -0.45018,0.817338 -0.61667,1.257297 -0.19633,0.444561 -0.27732,0.918914 -0.32328,1.398861 -0.0886,0.534758 -0.17406,1.069975 -0.25994,1.605358 -0.1194,0.548117 -0.20069,1.101697 -0.24444,1.660657 0.0101,0.474992 -0.0794,0.934218 -0.16901,1.397269 -0.0594,0.476242 -0.11843,0.948836 -0.21104,1.420165 -0.0752,0.506115 -0.14571,1.009967 -0.24817,1.511606 -0.10658,0.565687 -0.23899,1.127315 -0.3908,1.682636 -0.18386,0.654199 -0.44003,1.272305 -0.79622,1.850328 -0.31226,0.559495 -0.72757,1.029544 -1.18287,1.474019 -0.46714,0.464488 -1.0016,0.851594 -1.5042,1.275612 -0.60499,0.501961 -1.25432,0.948095 -1.88685,1.414714 -0.54455,0.385295 -1.07508,0.789474 -1.6133,1.183516 -0.4518,0.328471 -0.92456,0.626905 -1.39237,0.931796 -1.25319,0.801651 -2.59004,1.507118 -3.86657,2.240289 -0.24065,0.138218 -0.46956,0.245711 -0.73112,0.338858 -0.56919,0.192945 -1.14124,0.387854 -1.72435,0.536232 -0.33226,0.170874 -0.70895,0.203077 -1.05999,0.307653 -0.14688,0.04375 -0.28414,0.115181 -0.42826,0.1673 -0.45882,0.10956 -0.89772,0.268211 -1.36409,0.349741 -0.48549,0.103935 -0.99547,0.01122 -1.47343,0.135896 -0.43301,0.126997 -0.88315,0.160296 -1.33135,0.182987 -0.50652,0.0186 -1.01352,0.01846 -1.5203,0.01566 -0.65747,-0.0011 -1.31491,-0.0056 -1.97239,-0.005 -0.5642,-0.002 -1.12841,2.64e-4 -1.69262,0.0018 0,0 3.02308,-2.196337 3.02308,-2.196337 l 0,0 c 0.56219,0.0017 1.12438,0.0042 1.68657,0.0028 0.66038,0.0014 1.32075,-0.0013 1.98112,-0.0025 0.50386,-0.0046 1.00839,-0.0035 1.51117,-0.0413 0.44323,-0.04129 0.87769,-0.123354 1.31401,-0.20941 0.48788,-0.03103 0.98028,-0.03739 1.45886,-0.149457 0.45052,-0.112141 0.89481,-0.251365 1.33772,-0.389684 0.49293,-0.165308 1.00483,-0.272713 1.49487,-0.449375 0.57244,-0.172256 1.1486,-0.340341 1.69949,-0.574318 0.31178,-0.14781 0.16346,-0.07225 0.47043,-0.239173 0.0794,-0.04315 0.31601,-0.175122 0.23797,-0.12963 -5.23454,3.051483 -3.6645,2.106397 -2.53837,1.472993 0.46213,-0.320047 0.93832,-0.61199 1.41016,-0.917808 0.53153,-0.408993 1.08209,-0.791804 1.61711,-1.196187 0.64721,-0.439687 1.26088,-0.93102 1.90186,-1.379785 0.48507,-0.439082 1.01389,-0.821574 1.50133,-1.255679 0.45346,-0.427465 0.92396,-0.840162 1.22021,-1.399753 0.3812,-0.537538 0.65223,-1.107789 0.83813,-1.7406 0.15298,-0.546566 0.29332,-1.096939 0.39619,-1.654494 0.0968,-0.502506 0.20749,-0.997054 0.24848,-1.508689 0.0871,-0.470838 0.18908,-0.932662 0.20809,-1.413288 0.0738,-0.456691 0.22246,-0.896777 0.19363,-1.365345 0.0355,-0.571954 0.10086,-1.141358 0.23122,-1.700417 0.10755,-0.518767 0.12564,-1.054378 0.2693,-1.567876 0.0332,-0.508345 0.0867,-1.019026 0.27308,-1.497897 0.0902,-0.218483 0.14566,-0.448674 0.24907,-0.661469 0.23975,-0.493353 -0.017,0.07847 0.24511,-0.398393 0.0419,-0.07625 0.0709,-0.158937 0.1063,-0.238406 0.22233,-0.405205 0.38658,-0.857792 0.73518,-1.176173 0.26657,-0.386242 0.58248,-0.731853 0.80502,-1.150267 0.41659,-0.49083 -0.12562,0.165009 0.28799,-0.396159 0.94162,-1.277585 2.57483,-1.896337 4.02433,-2.4719 0.70921,-0.132209 1.40599,0.033 2.08223,0.261159 0,0 -3.11999,2.079211 -3.11999,2.079211 z"
       inkscape:connector-curvature="0" />
    <path
       style="fill:#b3b3b3;fill-opacity:0.56613758;stroke:none"
       id="path6232"
       d="m 612.119,104.86933 c 1.4507,-1.5082 3.27358,-2.3151 5.10316,-3.37113 0.5026,-0.22696 0.97819,-0.43837 1.53137,-0.49629 0.55882,-0.0356 1.11599,0.0969 1.67221,0.15394 0.55574,0.0209 1.11394,-0.0913 1.66988,-0.13992 0.54712,0.009 1.0704,-0.10036 1.60497,-0.19435 0.57915,-0.0897 1.14499,-0.23829 1.72917,-0.30901 0.50241,-0.18049 1.0442,-0.18583 1.553,-0.32809 0.49907,-0.14312 1.01561,-0.191205 1.53176,-0.219162 0.5072,-0.02038 1.01495,-0.01819 1.52246,-0.01777 0.50879,0.0396 0.9983,-0.103574 1.49873,-0.172062 0.48302,0.0033 0.92985,-0.122479 1.39513,-0.224058 0.5124,-0.09163 1.03585,-0.09182 1.55479,-0.101926 0.54174,0.04374 1.05889,-0.05624 1.58873,-0.144487 0.60092,-0.07747 1.2065,-0.09401 1.81148,-0.104761 0.62703,-0.0091 1.25415,-0.0061 1.88123,-0.0066 0.51366,-0.05515 1.00106,0.09588 1.50194,0.1755 0.47311,0.0888 0.92052,0.05617 1.36986,-0.111791 0.51959,-0.185541 1.05103,-0.327341 1.57266,-0.504652 0.62938,-0.177386 1.26791,-0.323412 1.89594,-0.507807 0.61267,-0.154782 1.22288,-0.320533 1.8262,-0.509456 0.58252,-0.114474 1.12205,-0.322106 1.65685,-0.569232 0.39536,-0.156087 0.83608,-0.252944 1.19556,-0.484011 1.1212,-0.599726 2.59945,-1.459838 -2.66554,1.54005 -0.0713,0.04064 0.13722,-0.09016 0.20602,-0.134929 0.27326,-0.177814 0.12435,-0.07101 0.3891,-0.276997 0.37524,-0.30342 0.73005,-0.631908 1.06912,-0.975114 0.31361,-0.361986 0.61309,-0.736852 0.94297,-1.084571 0.39202,-0.403702 0.84856,-0.737907 1.31201,-1.054257 0.43302,-0.272647 0.85492,-0.562286 1.29138,-0.829514 0.45567,-0.351068 0.94754,-0.650924 1.43955,-0.94799 0.55571,-0.382383 1.12943,-0.734608 1.7058,-1.084934 1.90058,-1.125421 7.46471,-4.273161 1.098,-0.635759 -0.17004,0.09715 0.22741,-0.139729 0.51663,-0.312485 0.50369,-0.317429 1,-0.64579 1.49337,-0.978968 0.34773,-0.270785 0.70804,-0.521536 1.06352,-0.78078 0.37388,-0.282924 0.71177,-0.606566 1.07357,-0.904529 0.41173,-0.310998 0.82354,-0.619031 1.20145,-0.971419 0.28054,-0.261169 0.56251,-0.522951 0.82339,-0.803982 0.31849,-0.299708 0.68007,-0.548019 1.03234,-0.805788 0.38591,-0.31361 0.85001,-0.514762 1.19995,-0.870677 0.17297,-0.211963 0.23197,-0.468902 0.27578,-0.731706 0,0 3.37596,-1.651227 3.37596,-1.651227 l 0,0 c -0.0495,0.303583 -0.0765,0.614225 -0.20841,0.897063 -0.26946,0.469856 -0.7106,0.695355 -1.16372,0.968092 -0.33667,0.271488 -0.69434,0.507533 -1.03475,0.769817 -0.30388,0.238745 -0.54394,0.553852 -0.82564,0.81838 -0.40408,0.323672 -0.7458,0.7255 -1.20581,0.979957 -0.35601,0.302269 -0.70711,0.607791 -1.06363,0.903107 -0.32913,0.305564 -0.7255,0.510261 -1.06668,0.802717 -0.46528,0.377725 -0.99755,0.663967 -1.48536,1.011232 -2.05202,1.294452 -7.72121,4.468245 -1.33256,0.784785 0.0963,-0.05554 -0.18974,0.116013 -0.28461,0.174019 -0.58755,0.326535 -1.16426,0.675539 -1.70439,1.074685 -0.48164,0.301087 -0.99506,0.569023 -1.43612,0.922324 -0.40109,0.318481 -0.87371,0.553635 -1.2988,0.838125 -0.45642,0.309402 -0.92522,0.609988 -1.33012,0.985954 -0.34721,0.327907 -0.66905,0.687034 -0.94765,1.074201 -0.32566,0.362086 -0.67583,0.707208 -1.05508,1.011029 -0.18701,0.178356 -0.35267,0.322856 -0.5758,0.453597 -1.26697,0.742354 -2.45201,1.543845 -3.75953,2.170582 -0.40261,0.145748 -0.79826,0.310947 -1.19685,0.466864 -0.54084,0.232363 -1.11395,0.361088 -1.67798,0.524104 -0.6079,0.17214 -1.21475,0.34677 -1.82725,0.50202 -0.63224,0.16734 -1.26669,0.32865 -1.89169,0.52139 -0.53244,0.15794 -1.05171,0.35561 -1.58894,0.4981 -0.49285,0.0915 -0.97905,0.0871 -1.47154,-0.0173 -0.48243,-0.0896 -0.95962,-0.17012 -1.45381,-0.13151 -0.6246,-0.001 -1.24927,-0.001 -1.87375,0.0129 -0.59821,0.019 -1.19779,0.0495 -1.78854,0.15181 -0.53661,0.0864 -1.07242,0.10785 -1.61592,0.10176 -0.51009,0.018 -1.02314,0.0404 -1.52024,0.16714 -0.46428,0.10831 -0.93466,0.1359 -1.40663,0.19767 -0.50839,0.0814 -1.014,0.164 -1.53164,0.12827 -0.50232,0.002 -1.00529,0.002 -1.50652,0.0394 -0.50644,0.0468 -1.00541,0.1336 -1.49787,0.26236 -0.52554,0.0896 -1.04578,0.19949 -1.56861,0.30221 -0.57757,0.0922 -1.1443,0.23769 -1.72337,0.3216 -0.53672,0.0958 -1.07519,0.13327 -1.61906,0.16677 -0.57047,0.0575 -1.14521,0.16518 -1.71827,0.0802 -0.53426,-0.0648 -1.07496,-0.17984 -1.61099,-0.068 -0.50784,0.12408 -0.97598,0.35216 -1.44288,0.5841 5.67637,-3.31233 2.31034,-1.5478 1.2594,-0.40185 0,0 -3.45984,1.43312 -3.45984,1.43312 z"
       inkscape:connector-curvature="0" />
    <path
       style="fill:#b3b3b3;fill-opacity:0.56613758;stroke:none"
       id="path6234"
       d="m 667.66057,83.935973 c 1.70141,-1.067019 3.41266,-2.131263 5.28394,-2.866134 0.58582,-0.173421 1.16199,-0.376511 1.76468,-0.48495 0.56669,-0.113012 1.13108,0.03149 1.69658,0.08975 0.77207,0.04912 1.53975,0.0743 2.30722,0.174618 0.73491,0.120103 1.48371,0.09266 2.21868,0.198831 0.68348,0.07227 1.35287,0.210064 2.02777,0.334222 0.61837,0.09997 1.22306,0.257023 1.84651,0.332029 0.45894,0.130546 0.91879,0.24067 1.37538,0.376974 0.45069,0.07253 0.86353,0.262647 1.3099,0.353615 0.41251,0.08906 0.80391,0.230486 1.22678,0.285709 0.46798,0.02512 0.91967,0.04056 1.37566,0.150154 0.43625,0.104026 0.88505,0.125331 1.33141,0.141025 0.44332,0.101693 0.88063,0.203277 1.31649,0.330878 0.0773,0.01836 0.15451,0.03672 0.23177,0.05508 0,0 -3.08523,2.126666 -3.08523,2.126666 l 0,0 c -0.0797,-0.02138 -0.15933,-0.04277 -0.239,-0.06415 -0.41425,-0.116011 -0.83942,-0.209951 -1.26642,-0.260476 -0.46105,-0.02833 -0.92027,-0.07711 -1.36999,-0.187345 -0.45133,-0.08192 -0.91295,-0.05331 -1.36487,-0.136747 -0.42014,-0.08243 -0.8213,-0.229153 -1.24228,-0.307681 -0.44079,-0.119962 -0.87071,-0.276075 -1.31832,-0.371996 -0.44078,-0.129304 -0.88975,-0.234445 -1.33749,-0.335498 -0.62123,-0.09885 -1.23027,-0.256747 -1.85239,-0.350647 -0.66502,-0.13182 -1.33278,-0.237488 -2.00638,-0.316376 -0.73913,-0.06577 -1.48192,-0.09364 -2.21696,-0.203078 -0.76833,-0.08994 -1.54127,-0.08823 -2.3111,-0.163063 -0.54835,-0.05805 -1.09276,-0.14299 -1.6355,0.0099 -0.57909,0.14053 -1.15053,0.320634 -1.7093,0.526747 -0.25124,0.106106 -0.46205,0.193143 -0.71124,0.306855 -0.1245,0.05682 -0.48853,0.245858 -0.37119,0.175427 5.01838,-3.012193 3.32561,-1.923738 2.21837,-1.287241 0,0 -3.49348,1.366904 -3.49348,1.366904 z"
       inkscape:connector-curvature="0" />
    <path
       style="fill:#b3b3b3;fill-opacity:0.56613758;stroke:none"
       id="path6236"
       d="m 641.68152,30.682559 c -0.87737,-0.04474 -1.58117,0.09965 -2.38842,0.417076 -1.282,0.806849 0.3794,-0.243829 2.74999,-1.552528 0.0619,-0.03417 -0.11008,0.08945 -0.15845,0.141026 -0.13497,0.143895 -0.24066,0.318692 -0.3367,0.489398 -0.2013,0.347585 -0.31885,0.714554 -0.41143,1.10248 -0.11952,0.385697 -0.2215,0.773918 -0.35451,1.155252 -0.11032,0.445214 -0.22856,0.88992 -0.32241,1.339263 -0.0924,0.487626 -0.10818,0.984586 -0.11933,1.479361 0.0226,0.592237 -0.0392,1.176245 -0.11425,1.762319 -0.097,0.736758 -0.12326,1.480158 -0.13942,2.222314 -0.007,0.791092 -0.12465,1.575575 -0.19053,2.363062 -0.0593,0.676721 -0.2043,1.337376 -0.36734,1.994895 -0.10892,0.74353 -0.46307,1.377033 -0.85646,2.003432 -0.93655,1.429694 -1.99047,2.777803 -3.05308,4.114855 -0.61039,0.756051 -1.16304,1.566003 -1.85799,2.24901 -1.55651,1.297127 -3.40036,2.207827 -5.23692,3.047892 -1.59216,0.739423 -3.17663,1.483817 -4.72195,2.317573 -1.8489,1.028689 -3.71404,2.020961 -5.62889,2.921451 -1.64193,0.719552 -3.22235,1.566598 -4.83277,2.350092 -0.80239,0.447209 -1.63105,0.839157 -2.45408,1.244836 -0.10118,0.05853 -0.405,0.233683 -0.30355,0.175603 0.9668,-0.55352 1.93112,-1.111371 2.89961,-1.661925 0.0938,-0.05333 -0.18186,0.11633 -0.27539,0.170144 -1.15385,0.663916 -2.30656,1.32991 -3.4666,1.98296 -0.99485,0.56006 3.94568,-2.298527 2.97104,-1.703979 -1.12326,0.685215 -2.27805,1.317378 -3.41707,1.976067 7.86989,-4.533852 -0.28692,0.162834 -0.42917,0.246334 -0.99896,0.586377 2.00607,-1.158793 3.01299,-1.731395 0.0639,-0.03635 -0.12198,0.08217 -0.18354,0.122384 -0.0644,0.04208 -0.12961,0.08299 -0.19441,0.12449 -0.066,0.04313 -0.13202,0.08626 -0.19803,0.129383 -1.35431,0.803903 -0.053,0.03286 -3.64428,2.097148 -0.31974,0.18379 -0.62526,0.310979 -0.98236,0.40418 -0.41048,0.231022 -0.86583,0.302904 -1.32756,0.343602 -0.32287,0.05032 -0.65784,-0.01151 -0.98029,0.02721 -0.14027,0.01684 -0.27388,0.06952 -0.41097,0.103671 -0.43122,0.129927 -0.89568,0.0585 -1.32143,0.191215 -0.2089,0.05231 -0.40689,0.101948 -0.60544,0.185531 0,0 2.96165,-2.300953 2.96165,-2.300953 l 0,0 c 0.21074,-0.05378 0.42115,-0.10995 0.63528,-0.149052 0.44335,-0.04375 0.8868,-0.08614 1.32087,-0.192249 0.46524,-0.07325 0.93881,-0.03567 1.40499,-0.107722 0.44658,-0.07662 0.86127,-0.231643 1.28252,-0.394886 0.24678,-0.09478 0.47354,-0.203588 0.70558,-0.330239 0.0784,-0.04278 0.31225,-0.173391 0.2351,-0.128429 -3.2514,1.89479 -3.94214,2.331552 -2.77209,1.597493 0.20383,-0.107557 0.38484,-0.238848 0.58336,-0.35527 11.25178,-6.598653 -7.47906,4.35859 3.81943,-2.239037 -7.73953,4.481875 0.16639,-0.09747 0.44767,-0.255394 0.98484,-0.552929 -1.95289,1.13527 -2.92999,1.701769 -0.094,0.05447 0.18669,-0.111002 0.28052,-0.165675 3.55181,-2.069577 2.28834,-1.417958 3.79511,-2.186353 0.81518,-0.382916 1.60455,-0.81444 2.41127,-1.214457 1.58774,-0.787616 3.17557,-1.574831 4.78929,-2.308859 1.90887,-0.911486 3.76798,-1.91551 5.61986,-2.93719 1.57044,-0.836601 3.18406,-1.581026 4.78985,-2.346679 0.18055,-0.08657 0.36235,-0.170556 0.54163,-0.259716 0.14329,-0.07126 0.56366,-0.302976 0.42595,-0.221475 -5.17553,3.062878 -3.14237,1.929256 -2.07883,1.135758 0.79007,-0.605476 1.32948,-1.476537 1.97046,-2.224907 1.06459,-1.30707 2.10634,-2.637571 3.02036,-4.055802 0.37427,-0.583656 0.76476,-1.174492 0.86723,-1.875389 0.15648,-0.646259 0.34157,-1.283444 0.41031,-1.948297 0.056,-0.781855 0.1819,-1.558513 0.19517,-2.342113 0.0161,-0.752486 0.0393,-1.505652 0.11731,-2.254742 0.0716,-0.573248 0.15494,-1.140309 0.11998,-1.720114 0.007,-0.51268 0.0164,-1.027058 0.0907,-1.535334 0.0783,-0.464932 0.22037,-0.911366 0.2959,-1.376075 0.11027,-0.389229 0.26827,-0.757125 0.35494,-1.154041 0.14896,-0.374187 0.12692,-0.811339 0.39393,-1.141892 0.5804,-1.669661 2.55596,-2.282772 4.0986,-2.93654 0.80128,-0.259357 1.63461,-0.329248 2.47505,-0.321478 0,0 -3.02757,2.199659 -3.02757,2.199659 z"
       inkscape:connector-curvature="0" />
    <path
       style="fill:#b3b3b3;fill-opacity:0.56613758;stroke:none"
       id="path6238"
       d="m 622.28258,84.64547 c -0.34756,-0.593998 -0.73527,-1.164013 -1.09842,-1.749196 -0.35493,-0.532908 -0.7585,-1.036789 -1.18627,-1.512857 -0.28572,-0.356807 -0.61522,-0.672122 -0.90875,-1.022248 -0.30003,-0.343201 -0.62973,-0.667476 -1.01229,-0.918387 -0.33438,-0.322186 -0.76112,-0.494978 -1.15197,-0.726903 -0.37208,-0.201784 -0.79483,-0.308864 -1.21457,-0.24103 -0.33488,0.03831 -0.647,0.104718 -0.94125,0.275743 -0.0814,0.04729 -0.31856,0.200246 -0.23666,0.15391 0.98397,-0.556688 1.96219,-1.123471 2.94329,-1.685207 -0.43007,0.261734 -0.81276,0.586848 -1.19523,0.911242 -0.27588,0.247181 -0.52521,0.521572 -0.79674,0.772915 -0.31974,0.314368 -0.52685,0.714423 -0.77055,1.085294 -0.21394,0.344083 -0.38451,0.712029 -0.58319,1.064213 -0.19075,0.313416 -0.39368,0.618834 -0.57716,0.937281 -0.1489,0.343411 -0.38868,0.63215 -0.56959,0.956887 -0.18382,0.325656 -0.43031,0.603471 -0.66645,0.890283 -0.26601,0.30389 -0.55115,0.593721 -0.8492,0.866526 -0.31276,0.293814 -0.5853,0.625781 -0.89426,0.923569 -0.29398,0.333776 -0.57222,0.681614 -0.86808,1.014184 -0.25155,0.289661 -0.50527,0.58 -0.78305,0.844991 -0.34902,0.360618 -0.73797,0.683817 -1.11712,1.012905 -1.55844,1.333361 -3.41029,2.221284 -5.18212,3.241722 -0.75521,0.434586 0.0138,3.68e-4 -0.72527,0.393875 -0.1113,0.05926 -0.43969,0.247055 -0.33046,0.18408 0.95816,-0.552377 3.82822,-2.216988 2.87726,-1.652306 -0.42112,0.250063 -8.01176,4.620467 -0.57247,0.335601 -0.75348,-0.134408 -3.1351,2.113187 -4.62591,2.478986 -0.30872,0.08935 -0.63781,0.0379 -0.95013,0.08408 -0.1378,0.02037 -0.26835,0.07486 -0.40311,0.11013 -0.45743,0.05357 -0.89332,0.183137 -1.34301,0.275881 -0.48129,0.183762 -0.99437,0.269332 -1.44295,0.529636 -1.12994,0.60766 -2.68854,1.507248 2.57297,-1.485962 0.0761,-0.04327 -0.14683,0.09527 -0.22014,0.143064 -0.26948,0.175677 -0.14479,0.08724 -0.40285,0.288726 -0.41548,0.305192 -0.77463,0.669738 -1.14489,1.025751 -0.39188,0.419505 -0.78727,0.836226 -1.147,1.283916 -0.48279,0.62355 -0.96511,1.246283 -1.47612,1.847158 -0.50403,0.539034 -0.96765,1.111993 -1.43915,1.678977 -0.31544,0.409636 -0.64626,0.806326 -0.97868,1.201986 -0.24381,0.27782 -0.51438,0.52974 -0.76448,0.80129 -1.2543,1.31211 -2.77646,1.68272 -4.2437,2.38029 -0.45743,0.21671 -0.91883,0.37688 -1.41959,0.45999 -0.4707,0.009 -0.90588,0.17769 -1.36711,0.25063 -0.47637,0.0607 -0.95744,0.0642 -1.43689,0.0688 -0.5169,-0.028 -1.01598,0.0121 -1.52408,0.0922 -1.25633,0.37937 -2.49359,0.82298 -3.72209,1.28431 -0.9121,0.41274 -1.94234,0.55096 -2.8156,1.04837 0,0 2.92316,-2.33181 2.92316,-2.33181 l 0,0 c 0.90789,-0.36465 1.86079,-0.60152 2.7691,-0.96657 1.26535,-0.46154 2.52699,-0.9641 3.83887,-1.27621 0.51732,-0.0697 1.03661,-0.0493 1.55763,-0.0577 0.46945,-0.0121 0.94142,-0.0277 1.40296,-0.12259 0.45091,-0.0996 0.89948,-0.19264 1.3576,-0.25353 0.4791,-0.12429 0.92565,-0.32684 1.37868,-0.5236 0.18834,-0.0743 0.3585,-0.16215 0.53913,-0.25187 0.056,-0.0278 0.22472,-0.10946 0.17083,-0.0777 -2.9268,1.72547 -4.12722,2.2635 -2.88682,1.70078 0.29027,-0.22378 0.52368,-0.52096 0.77692,-0.78392 0.38793,-0.34269 0.68633,-0.78476 1.00968,-1.18653 0.48307,-0.56387 0.92826,-1.159015 1.45043,-1.688614 0.51573,-0.586387 1.00274,-1.19389 1.4643,-1.823296 0.35288,-0.458186 0.73166,-0.888914 1.12366,-1.314459 0.34292,-0.384218 0.71515,-0.755533 1.13288,-1.058466 0.19581,-0.185867 0.37241,-0.339041 0.60584,-0.475902 1.27146,-0.745471 2.50458,-1.586767 3.84612,-2.210752 0.48904,-0.181022 0.98845,-0.334436 1.4933,-0.464645 0.44699,-0.107529 0.89825,-0.183698 1.34769,-0.279779 0.44227,-0.08305 0.90296,-0.06155 1.33103,-0.21903 1.32149,-0.52927 3.61803,-2.102625 -1.82122,1.161438 1.15757,-0.671163 2.3169,-1.339295 3.4727,-2.01349 0.96305,-0.561764 -3.85929,2.234903 -2.89446,1.676195 1.51393,-0.876677 3.01217,-1.76598 4.54624,-2.60169 -5.5367,3.214168 -2.29969,1.471744 -1.1703,0.488245 0.38493,-0.302719 0.72343,-0.657953 1.11441,-0.953789 0.23722,-0.30017 0.54081,-0.543494 0.796,-0.828839 0.27047,-0.361756 0.61216,-0.665167 0.8587,-1.045277 0.28492,-0.314324 0.59555,-0.613297 0.88885,-0.916931 0.25579,-0.308389 0.57789,-0.559331 0.86195,-0.840662 0.2294,-0.286424 0.48877,-0.543174 0.67783,-0.85591 0.22417,-0.281787 0.36297,-0.625854 0.59335,-0.90674 0.12181,-0.319472 0.35018,-0.694557 0.56915,-0.955751 0.18717,-0.367462 0.39533,-0.720436 0.57855,-1.089595 0.23169,-0.389082 0.47121,-0.77797 0.73595,-1.145007 0.23005,-0.293524 0.52682,-0.534498 0.79404,-0.792837 0.33844,-0.38279 0.76729,-0.689956 1.18408,-0.981616 1.4903,-0.87515 2.93406,-2.230434 4.73975,-2.320402 0.47364,0.03707 0.92512,0.154857 1.33251,0.408571 0.41121,0.22061 0.81163,0.45462 1.16902,0.758518 0.39259,0.290438 0.74631,0.628541 1.06654,0.99718 0.29684,0.343092 0.61541,0.667024 0.89399,1.025678 0.42781,0.503217 0.85297,1.013689 1.21303,1.568415 0.3587,0.583302 0.72786,1.159015 1.10808,1.728552 0,0 -3.23665,1.896577 -3.23665,1.896577 z"
       inkscape:connector-curvature="0" />
    <path
       style="fill:none;stroke:#000000;stroke-width:1px;stroke-linecap:butt;stroke-linejoin:miter;stroke-opacity:1"
       d="M 424.53125 39.9375 C 423.51643 40.176945 422.53149 40.546926 421.625 41.03125 C 420.19374 41.795951 418.91243 42.847574 417.75 44.03125 C 412.70376 49.169683 410.18107 57.141415 410.125 58.375 C 404.55804 73.252574 410.69331 78.115751 417.4375 75 C 415.50588 81.691845 418.05342 89.181692 423.90625 79.0625 C 427.58116 72.708807 433.32138 65.049407 435.65625 59.9375 C 437.21135 51.41748 433.52604 54.03574 431.65625 52.8125 C 430.73312 53.190225 429.86589 53.722499 429.03125 54.34375 C 429.20752 51.907326 429.15687 49.3013 428.8125 46.5 C 430.48273 38.625649 426.53946 41.06804 424.53125 39.9375 z "
       id="path7004" />
  </g>
</svg>
